<?xml version="1.0" encoding="UTF-8"?>
<svg version="1.1" xmlns="http://www.w3.org/2000/svg" width="502" height="1080">
<path d="M0 0 C2.625 0.375 2.625 0.375 5 1 C3.7260411 3.03833424 2.38938077 5.03852126 1 7 C0.34 7 -0.32 7 -1 7 C-1.66 8.65 -2.32 10.3 -3 12 C-3.66 12 -4.32 12 -5 12 C-5.39638672 13.09634766 -5.39638672 13.09634766 -5.80078125 14.21484375 C-7.0025469 17.00591512 -8.38509573 19.12492351 -10.1875 21.5625 C-15.69256499 29.26269529 -20.4012266 37.23776911 -24 46 C-24.92982228 47.8372392 -25.86834244 49.67008638 -26.8125 51.5 C-32.23579516 62.29262719 -36.42356909 73.17325089 -39 85 C-39.51931192 87.25035164 -40.04016693 89.50034769 -40.5625 91.75 C-40.79066406 92.75546875 -41.01882812 93.7609375 -41.25390625 94.796875 C-41.78291079 97.06799398 -42.36681945 99.32663951 -42.98828125 101.57421875 C-47.4344041 119.33760849 -47.74372049 138.78531513 -47 157 C-46.95214355 158.33248779 -46.95214355 158.33248779 -46.90332031 159.69189453 C-46.36527104 172.34524977 -44.29299331 184.57308141 -41.6875 196.9375 C-41.54496796 197.61979675 -41.40243591 198.30209351 -41.25558472 199.00506592 C-39.36039348 207.97243745 -36.98087885 216.68950561 -34.1472168 225.40551758 C-33.05280097 228.83456294 -32.07221823 232.27786683 -31.125 235.75 C-29.36817449 241.54824714 -26.69456245 246.41725143 -23.48828125 251.5390625 C-22 254 -22 254 -21 257 C-20.34 257.33 -19.68 257.66 -19 258 C-19.29547729 257.1347168 -19.29547729 257.1347168 -19.59692383 256.25195312 C-33.81036118 212.22379701 -25.22395667 156.25725676 -10 114 C-9.65195313 113.00355469 -9.30390625 112.00710937 -8.9453125 110.98046875 C10.68469118 55.57843356 10.68469118 55.57843356 29 36 C29.99 36 30.98 36 32 36 C31.46624006 40.06369233 30.33377919 42.21289675 27.6875 45.3125 C23.39277381 50.61723337 20.71545784 55.91085439 18.4375 62.3125 C17.08823182 65.77366619 16.44403798 66.56872462 14 69 C13.26505013 70.87078148 12.53935658 72.7461688 11.87890625 74.64453125 C10.91125137 77.23784632 9.75482569 79.68981468 8.5625 82.1875 C6.19724711 87.30041193 4.55166366 92.47335694 2.96484375 97.87109375 C1.84002532 101.5187843 0.46179698 105.00505143 -0.9921875 108.53125 C-3.33874737 114.27941217 -5.61114878 120.07970234 -7.0625 126.125 C-7.74438502 128.94345809 -8.49482335 131.37702806 -9.5 134.0625 C-11.27915963 139.26654192 -11.82912569 144.52729517 -12.4609375 149.97265625 C-12.93599995 153.85605893 -13.78781558 157.61540104 -14.625 161.4375 C-18.36007115 181.1209533 -16.5769422 201.94085087 -13.75 221.625 C-13.64776123 222.34717712 -13.54552246 223.06935425 -13.44018555 223.81341553 C-12.04070811 233.47417282 -9.84403619 242.65780087 -7 252 C-6.65493204 253.33034469 -6.3177087 254.6628575 -6 256 C-5.07513276 259.76494627 -4.0822538 263.50962001 -3.0625 267.25 C-2.74410156 268.43078125 -2.42570313 269.6115625 -2.09765625 270.828125 C-1.0754449 273.78198841 -0.03187001 275.6613234 2 278 C1.34133221 273.21698512 1.34133221 273.21698512 0.4765625 268.46875 C-0.20372034 263.51718309 -0.18431617 258.61724728 -0.1875 253.625 C-0.19974609 252.62210938 -0.21199219 251.61921875 -0.22460938 250.5859375 C-0.23740511 244.06864568 0.02773692 237.94452617 3 232 C4.32 232 5.64 232 7 232 C7.11593506 232.58491211 7.23187012 233.16982422 7.35131836 233.77246094 C7.87902809 236.4318437 8.40824858 239.09092365 8.9375 241.75 C9.11990234 242.67039062 9.30230469 243.59078125 9.49023438 244.5390625 C9.66748047 245.42851562 9.84472656 246.31796875 10.02734375 247.234375 C10.18968506 248.05131836 10.35202637 248.86826172 10.51928711 249.70996094 C10.96269203 251.82227083 11.46079981 253.910337 12 256 C12.31453125 255.46890625 12.6290625 254.9378125 12.953125 254.390625 C15.31955588 250.48458848 17.55305542 247.06395074 21 244 C21.99 244.33 22.98 244.66 24 245 C23.94670532 246.06806885 23.94670532 246.06806885 23.89233398 247.15771484 C22.2453695 281.29748686 22.2453695 281.29748686 27 315 C27.226875 316.05960937 27.45375 317.11921875 27.6875 318.2109375 C31.00572388 332.87899533 37.55545771 345.42099115 47 357 C47.72703125 357.92425781 48.4540625 358.84851563 49.203125 359.80078125 C52.58943274 364.05670203 55.86346245 368.0845093 60.0625 371.5625 C61.031875 372.366875 62.00125 373.17125 63 374 C63 374.66 63 375.32 63 376 C63.66 376 64.32 376 65 376 C66.625 377.375 66.625 377.375 68 379 C68 379.66 68 380.32 68 381 C70.93720508 382.52299523 73.9168649 383.80100302 77 385 C77.0928125 386.28777344 77.185625 387.57554687 77.28125 388.90234375 C77.873963 394.16987471 79.47864952 398.68776149 81.5 403.5625 C81.85239746 404.42584961 82.20479492 405.28919922 82.56787109 406.17871094 C87.33419259 417.55341054 93.17510988 428.42507019 101 438 C101.92232422 439.22976563 101.92232422 439.22976563 102.86328125 440.484375 C106.57276929 445.35352823 110.16116161 449.21235094 115.19140625 452.703125 C117.7412181 454.53149981 119.81444157 456.75692688 122 459 C127.11442494 463.74910888 132.80947344 466.82349621 139 470 C139.59393555 470.3108252 140.18787109 470.62165039 140.79980469 470.94189453 C145.90867369 473.5702229 151.13142251 475.71273851 156.5 477.75 C157.32242187 478.06582031 158.14484375 478.38164062 158.9921875 478.70703125 C160.99341746 479.47494507 162.99651441 480.23799052 165 481 C164.34 480.05125 163.68 479.1025 163 478.125 C161 475 161 475 161 473 C160.34 473 159.68 473 159 473 C149.45495249 460.56979959 144.28919248 447.29584206 145.3203125 431.6640625 C144.90823138 428.23675364 143.60472589 427.15528299 141 425 C141.33 424.01 141.66 423.02 142 422 C144.5 421 144.5 421 148 420 C149.62710756 419.46469751 151.25205949 418.92280642 152.875 418.375 C154.25 417.91666667 155.625 417.45833333 157 417 C156.38125 416.525625 155.7625 416.05125 155.125 415.5625 C150.80754587 410.35615826 150.72207844 403.53115674 151 397 C151.66 397 152.32 397 153 397 C152.67 396.34 152.34 395.68 152 395 C151.56075441 389.32045232 151.76277657 384.31340565 154 379 C155.32 379 156.64 379 158 379 C158 379.99 158 380.98 158 382 C158.94875 382.28875 159.8975 382.5775 160.875 382.875 C164 384 164 384 166 386 C166.625 388.125 166.625 388.125 167 390 C168.65 390 170.3 390 172 390 C172 390.66 172 391.32 172 392 C172.804375 392.3403125 172.804375 392.3403125 173.625 392.6875 C176.82460161 394.45570089 179.29037223 396.53670203 182 399 C182 399.66 182 400.32 182 401 C184.82341958 402.45683293 187.66970895 403.71021102 190.625 404.875 C191.49511719 405.22175781 192.36523438 405.56851562 193.26171875 405.92578125 C195.09276869 406.64409613 196.92882157 407.34978189 198.76953125 408.04296875 C199.64996094 408.37941406 200.53039062 408.71585937 201.4375 409.0625 C202.64212891 409.51302734 202.64212891 409.51302734 203.87109375 409.97265625 C206.11158696 411.05384839 207.32599216 412.18649151 209 414 C210.010625 414.763125 211.02125 415.52625 212.0625 416.3125 C215.77468851 419.45358258 218.50016706 423.13155029 221.3125 427.0625 C221.74506104 427.66425049 222.17762207 428.26600098 222.62329102 428.88598633 C226.12941596 433.90252698 228.35332551 437.81680357 228 444 C224.78883205 443.48206969 221.95600781 442.60099756 218.9375 441.4375 C210.31541713 438.50140866 200.87967391 439.89986341 192 441 C192.47646147 446.00284542 193.93288562 449.03079315 197 453 C197.99 453.66 198.98 454.32 200 455 C200 455.66 200 456.32 200 457 C200.804375 457.268125 201.60875 457.53625 202.4375 457.8125 C203.283125 458.204375 204.12875 458.59625 205 459 C205.33 459.99 205.66 460.98 206 462 C206.680625 462.268125 207.36125 462.53625 208.0625 462.8125 C211.61472179 464.24850455 214.22797092 466.31212258 217.23046875 468.66015625 C218.96624445 470.05953287 218.96624445 470.05953287 221 471 C221 471.66 221 472.32 221 473 C221.59296875 473.21914063 222.1859375 473.43828125 222.796875 473.6640625 C227.4291228 476.47297872 229.23976869 482.07935338 231 487 C233.11536315 501.67989083 227.31834267 516.15352824 218.6484375 527.74609375 C216.95760911 529.98202401 216.95760911 529.98202401 215.55078125 532.4453125 C211.21316162 539.5909126 205.79059107 546.02474098 198.82421875 550.68359375 C196.88754519 552.00326457 196.88754519 552.00326457 195.0546875 553.98046875 C191.54598488 557.42913654 187.25426327 559.58102711 183 562 C182.14019531 562.49757813 181.28039062 562.99515625 180.39453125 563.5078125 C173.16384015 567.58775932 165.66716134 570.83331608 158 574 C156.44732422 574.6496875 156.44732422 574.6496875 154.86328125 575.3125 C146.78959105 578.68972989 146.78959105 578.68972989 143.0078125 580.17578125 C135.56520154 583.14315991 128.83826193 586.83972793 122 591 C115.51724138 594.82758621 115.51724138 594.82758621 112 596 C111.67 596.99 111.34 597.98 111 599 C110.02149805 600.02104551 109.02019573 601.0206121 108 602 C102.6873145 609.96902826 101.74722037 619.51822713 103.5390625 628.7890625 C105.47239589 636.33118727 108.27087727 643.54175454 111.75 650.5 C113 653 113 653 113 655 C113.60070312 655.25652344 114.20140625 655.51304687 114.8203125 655.77734375 C117.22463105 657.12600272 118.23598081 658.36975812 119.875 660.5625 C127.54837238 669.56613989 139.42119889 674.94400202 149.69458008 680.46240234 C153.82451594 682.69808047 157.6436367 685.100497 161.42504883 687.88378906 C163.55460063 689.39306063 165.79993224 690.56924459 168.125 691.75 C173.80049397 694.76437024 178.93312848 698.31795814 184.15234375 702.046875 C186.40527437 703.59209491 188.52100813 704.87698681 191 706 C191 706.66 191 707.32 191 708 C191.53625 708.061875 192.0725 708.12375 192.625 708.1875 C196.17026157 709.40035264 198.2592392 711.44610926 201 714 C201 714.66 201 715.32 201 716 C201.59167969 716.27585937 202.18335938 716.55171875 202.79296875 716.8359375 C213.4165006 722.43914545 221.41813788 734.29884269 228 744 C228 744.66 228 745.32 228 746 C228.99 746.33 229.98 746.66 231 747 C234 751.33333333 234 751.33333333 234 754 C234.66 754 235.32 754 236 754 C236.33 755.65 236.66 757.3 237 759 C237.66 759 238.32 759 239 759 C244.83719287 770.22019494 249.81079939 781.4867677 253.32421875 793.67578125 C254.65930654 798.26755718 256.13526412 802.82505824 257.90234375 807.26953125 C266.78211515 829.9147314 268.52399965 850.87336692 260 874 C259.34 874.33 258.68 874.66 258 875 C257.27319302 876.62017389 256.62074796 878.27380418 256 879.9375 C251.40691868 891.33161272 245.1897045 902.37137754 238.05859375 912.37109375 C236.81519073 914.13476012 236.81519073 914.13476012 236 917 C235.34 917 234.68 917 234 917 C233.04882055 913.28318545 233.0380225 910.72869834 233.9609375 907.015625 C234.18523437 906.07976563 234.40953125 905.14390625 234.640625 904.1796875 C234.88296875 903.21289062 235.1253125 902.24609375 235.375 901.25 C239.25685305 885.50929917 239.3924994 871.37169121 237.45581055 855.30297852 C237.18850744 853.07091248 236.93643552 850.83747913 236.68554688 848.60351562 C235.71107766 840.21165292 234.33021202 832.14543138 232 824 C232.22816406 825.03253906 232.45632813 826.06507813 232.69140625 827.12890625 C234.52914101 836.18203527 235.23936017 844.760397 234.8125 854 C234.7700415 854.94174072 234.72758301 855.88348145 234.68383789 856.85375977 C234.36642965 862.20725304 233.6298716 867.30822035 232.50170898 872.54785156 C231.66706908 876.62723027 231.16997931 880.74884121 230.625 884.875 C229.6053322 892.24767618 228.42607543 899.56961074 227 906.875 C226.76917725 908.09485596 226.76917725 908.09485596 226.53369141 909.33935547 C225.55197436 914.21538633 224.06588366 918.44860005 222 923 C221.32268845 924.99642017 220.65542037 926.9962863 220 929 C216.74598701 937.46043377 213.03327542 945.45008687 208 953 C207.34 953 206.68 953 206 953 C205.6596875 953.8353125 205.6596875 953.8353125 205.3125 954.6875 C203.04399551 958.68438886 200.38100054 961.53966649 196 963 C196 963.99 196 964.98 196 966 C193.734375 968.12109375 193.734375 968.12109375 190.75 970.4375 C187.28639246 973.14516145 184.07706033 975.86247342 181 979 C178.00322005 981.20815365 176.70157962 982.04295385 172.9375 981.8125 C171.4834375 981.9053125 171.4834375 981.9053125 170 982 C168.31912619 984.31447224 168.31912619 984.31447224 167.32421875 986.14453125 C161.72778937 993.98613584 151.87424107 998.64755208 143.4375 1002.8125 C142.00643523 1003.52198379 140.57544629 1004.23162053 139.14453125 1004.94140625 C138.44150879 1005.28961426 137.73848633 1005.63782227 137.01416016 1005.99658203 C135.21641807 1006.89218445 133.42603389 1007.80252163 131.63671875 1008.71484375 C123.29195139 1012.96840221 115.02690916 1016.50319534 106 1019 C105.67 1019.33 105.34 1019.66 105 1020 C103.33382885 1020.04063832 101.66611905 1020.042721 100 1020 C100.32859318 1016.93313028 100.89605564 1016.08708852 103.3125 1014.0625 C104.199375 1013.381875 105.08625 1012.70125 106 1012 C106.721875 1011.0925 107.44375 1010.185 108.1875 1009.25 C108.785625 1008.5075 109.38375 1007.765 110 1007 C110.66 1007 111.32 1007 112 1007 C112.37125 1006.1646875 112.37125 1006.1646875 112.75 1005.3125 C114.22924818 1002.57589087 115.93467439 1000.32349131 118 998 C118.66 998 119.32 998 120 998 C120.309375 997.38125 120.61875 996.7625 120.9375 996.125 C121.625 994.75 122.3125 993.375 123 992 C123.66 992 124.32 992 125 992 C125 991.34 125 990.68 125 990 C125.66 990 126.32 990 127 990 C127.25523437 989.42765625 127.51046875 988.8553125 127.7734375 988.265625 C129.13087159 985.75826267 130.71974104 983.8669544 132.625 981.75 C133.25664062 981.04359375 133.88828125 980.3371875 134.5390625 979.609375 C135.02117187 979.07828125 135.50328125 978.5471875 136 978 C132.35492135 979.54537897 129.96635452 981.77091785 127.125 984.5 C121.35648371 989.83837393 115.18483742 994.28559248 108.74316406 998.76660156 C104.96232249 1001.44178526 101.30066126 1004.27785804 97.62109375 1007.08984375 C90.88343558 1012 90.88343558 1012 87 1012 C87 1012.66 87 1013.32 87 1014 C86.19296631 1014.44243042 86.19296631 1014.44243042 85.36962891 1014.89379883 C81.28191241 1017.14798307 77.22440568 1019.44003734 73.2109375 1021.82421875 C72.41429687 1022.29537109 71.61765625 1022.76652344 70.796875 1023.25195312 C69.1713617 1024.21546302 67.54899099 1025.18429296 65.9296875 1026.15820312 C57.5218961 1031.10596998 50.00061092 1032.34192175 40.375 1033 C30.92845748 1033.69050166 30.92845748 1033.69050166 21.5625 1035.0625 C15.34561499 1036.14983236 9.16832428 1036.21396879 2.875 1036.375 C-6.80577578 1036.6351582 -15.74813883 1037.83806596 -25.13671875 1040.16015625 C-28.58469543 1040.9097164 -31.49246664 1041.17123391 -35 1041 C-34.67 1039.68 -34.34 1038.36 -34 1037 C-24.71191219 1034.62103473 -15.41407719 1032.36671097 -6.02978516 1030.39550781 C-2.16283878 1029.56407512 1.34576482 1028.48471288 5 1027 C7.66303385 1026.30067388 10.32220471 1025.63615474 13 1025 C16.17061514 1024.22355038 19.33587892 1023.42745767 22.5 1022.625 C23.30308594 1022.4290625 24.10617188 1022.233125 24.93359375 1022.03125 C29.7165778 1020.80643399 33.91218908 1019.21652194 38.27539062 1016.90576172 C40.29670256 1015.84417235 42.35702435 1015.03362542 44.5 1014.25 C51.9103993 1011.36433049 58.92318633 1007.60870631 66 1004 C67.33249158 1003.33165249 68.66530056 1002.66392742 70 1002 C68.39431334 1002.28317926 66.79047953 1002.57687791 65.1875 1002.875 C64.29417969 1003.03742187 63.40085937 1003.19984375 62.48046875 1003.3671875 C59.77272154 1003.91188449 59.77272154 1003.91188449 57 1006 C54.3125 1006.125 54.3125 1006.125 52 1006 C53.5027258 1001.79236776 56.23332995 1000.1972242 60 998 C60.66 998 61.32 998 62 998 C62 997.34 62 996.68 62 996 C62.96679688 995.50371094 63.93359375 995.00742187 64.9296875 994.49609375 C72.68343056 990.4689791 79.99754871 986.26103608 87 981 C87.78761719 980.41605469 88.57523437 979.83210937 89.38671875 979.23046875 C91.2656755 977.83026887 93.13668472 976.42090802 95 975 C92.67758808 976.15559627 90.3637777 977.32570532 88.0546875 978.5078125 C86.48074219 979.30832031 86.48074219 979.30832031 84.875 980.125 C83.29332031 980.93324219 83.29332031 980.93324219 81.6796875 981.7578125 C79 983 79 983 77 983 C77 983.66 77 984.32 77 985 C75.90042969 985.38671875 74.80085937 985.7734375 73.66796875 986.171875 C72.1744689 986.69788752 70.68097991 987.22393087 69.1875 987.75 C68.10952148 988.12898437 68.10952148 988.12898437 67.00976562 988.515625 C65.91245117 988.90234375 65.91245117 988.90234375 64.79296875 989.296875 C64.02218994 989.56814209 63.25141113 989.83940918 62.45727539 990.11889648 C60.75589826 990.72895809 59.06003852 991.35454611 57.36889648 991.99243164 C50.89016838 994.42448385 44.41996141 996.3432452 37.6875 997.9375 C36.62136475 998.19055908 35.55522949 998.44361816 34.45678711 998.7043457 C26.03816489 1000.64346314 17.57992445 1002.24820914 9.0625 1003.6875 C7.94770264 1003.87755615 6.83290527 1004.0676123 5.68432617 1004.26342773 C1.7960383 1004.89333092 -2.09843782 1005.46018486 -6 1006 C-7.3539537 1006.19112366 -7.3539537 1006.19112366 -8.73526001 1006.3861084 C-26.13848218 1008.7884685 -43.25752974 1009.48615486 -60.8125 1009.375 C-62.0793866 1009.3713443 -63.34627319 1009.3676886 -64.65155029 1009.36392212 C-82.92269106 1009.30210279 -100.92724754 1008.9081811 -119 1006 C-119.80759766 1005.8772168 -120.61519531 1005.75443359 -121.44726562 1005.62792969 C-137.45459364 1003.14686219 -152.72901889 998.24775983 -168 993 C-168.33 991.35 -168.66 989.7 -169 988 C-161.66080561 989.74150375 -154.45559888 992.15170413 -147.3125 994.5625 C-146.64307373 994.78494385 -145.97364746 995.0073877 -145.28393555 995.23657227 C-143.84351996 995.71804522 -142.40681743 996.21091572 -140.97583008 996.71972656 C-132.95416602 999.38621752 -124.72820304 1000.22937667 -116.375 1001.1875 C-114.87880949 1001.36572603 -113.38271459 1001.54475663 -111.88671875 1001.72460938 C-108.25886655 1002.15901065 -104.62984602 1002.58254538 -101 1003 C-101 1002.34 -101 1001.68 -101 1001 C-97.2981877 1001.37018123 -93.76753773 1001.80151706 -90.16015625 1002.734375 C-72.99106216 1007.1463119 -55.45626417 1005.17032287 -38.0625 1003.1875 C-37.33318268 1003.10490936 -36.60386536 1003.02231873 -35.85244751 1002.93722534 C-25.46624499 1001.73949787 -15.25787324 1000.01680959 -5 998 C-3.14647751 997.66310309 -1.2924516 997.32893724 0.5625 997 C1.43777344 996.83628906 2.31304687 996.67257812 3.21484375 996.50390625 C5.18097246 996.1481831 7.15327127 995.82578549 9.12890625 995.52734375 C36.41340662 990.92403698 66.32931842 978.13129352 88.3359375 961.203125 C90 960 90 960 92 960 C92 959.34 92 958.68 92 958 C93.99284138 956.6559907 95.99419671 955.32458708 98 954 C98.86625 953.13375 99.7325 952.2675 100.625 951.375 C103 949 103 949 105.1875 947.9375 C107.56773244 946.70634529 107.87418797 945.39235057 109 943 C111 940.75 111 940.75 113 939 C113.66 939 114.32 939 115 939 C115.2475 938.2678125 115.495 937.535625 115.75 936.78125 C117.12577351 933.72015394 118.68318086 931.91611139 121 929.5 C134.97014788 914.38069479 142.93182757 901.54585769 143.75 880.625 C143.79165283 879.58496826 143.83330566 878.54493652 143.8762207 877.47338867 C144.17592055 867.51652505 143.35743765 857.85308671 142 848 C141.83113281 846.70707031 141.66226562 845.41414062 141.48828125 844.08203125 C140.74456479 838.81651869 139.77890063 834.02539427 138 829 C137.0454683 831.86359511 136.80738849 834.01230285 136.625 837 C136.21123682 841.99142889 135.15512093 846.48395465 133.74609375 851.27734375 C133.03483516 853.87287904 132.55068277 856.40705035 132.125 859.0625 C131.23565074 864.23417806 129.94611654 869.25540709 128.5625 874.3125 C128.35705566 875.07763916 128.15161133 875.84277832 127.93994141 876.63110352 C126.70503002 881.05193155 125.11610793 884.90730774 123 889 C122.52050088 890.5501268 122.080408 892.11319514 121.6875 893.6875 C119.98144253 899.6274383 117.13275864 904.70264682 114 910 C113.52820313 910.81597656 113.05640625 911.63195312 112.5703125 912.47265625 C110.11836232 916.58583896 110.11836232 916.58583896 109 918 C108.34 918 107.68 918 107 918 C106.34 919.32 105.68 920.64 105 922 C104.01 921.67 103.02 921.34 102 921 C102.35191406 920.36835937 102.70382812 919.73671875 103.06640625 919.0859375 C107.25759543 911.49145894 111.16266291 903.7768518 115 896 C115.66 896 116.32 896 117 896 C117.103125 894.865625 117.20625 893.73125 117.3125 892.5625 C117.68995586 889.45290182 118.36809352 886.7757985 119.46875 883.84765625 C121.16536377 878.88537989 121.76782382 874.08420638 122.1875 868.875 C122.26645508 867.95412598 122.34541016 867.03325195 122.42675781 866.08447266 C123.77425173 849.33996493 123.41144343 832.29268392 119 816 C118.84144531 816.825 118.68289063 817.65 118.51953125 818.5 C116.75142354 827.25262157 114.40087953 835.63924495 111.61425781 844.11328125 C111.0349217 845.89273653 110.48145098 847.68055301 109.9296875 849.46875 C108.20323386 854.96077576 106.37218475 859.27894135 103 864 C102.71125 864.886875 102.4225 865.77375 102.125 866.6875 C99.26214924 875.117005 94.11409243 882.76577961 89 890 C88.50113281 890.71027344 88.00226563 891.42054688 87.48828125 892.15234375 C85.64110911 894.4455522 83.5303717 895.53504796 81 897 C80.67 897.66 80.34 898.32 80 899 C79.01 899 78.02 899 77 899 C76.67 899.99 76.34 900.98 76 902 C73.41796875 904.04296875 73.41796875 904.04296875 70.1875 906.1875 C68.60001953 907.26064453 68.60001953 907.26064453 66.98046875 908.35546875 C64 910 64 910 60 910 C60 909.01 60 908.02 60 907 C61.9140625 905.59765625 61.9140625 905.59765625 64.625 904.0625 C69.50760559 901.07482543 73.93445534 897.81242188 78.3125 894.125 C78.88629395 893.65586182 79.46008789 893.18672363 80.05126953 892.70336914 C87.7430587 886.11247426 91.8580849 877.74239526 95.625 868.5 C96.36663508 866.71851993 97.10881793 864.93726779 97.8515625 863.15625 C98.20774658 862.29475342 98.56393066 861.43325684 98.9309082 860.5456543 C99.96929869 858.07310404 101.04745919 855.62278307 102.14453125 853.17578125 C108.36512559 839.27616101 111.58973571 826.09079387 111.5625 810.8125 C111.56327042 809.79210632 111.56327042 809.79210632 111.5640564 808.75109863 C111.52757837 797.40793189 109.94357375 788.19317825 105 778 C104.37351562 776.48019531 104.37351562 776.48019531 103.734375 774.9296875 C100.89833347 768.14209477 97.08260495 762.09943137 93 756 C92.29875 754.9275 91.5975 753.855 90.875 752.75 C89.37277871 750.54674211 87.8267006 748.39924551 86.25 746.25 C84 743 84 743 84 741 C83.34 741 82.68 741 82 741 C82 740.01 82 739.02 82 738 C81.38125 737.731875 80.7625 737.46375 80.125 737.1875 C78 736 78 736 76 733 C76.87865631 738.64189838 77.9879299 743.5694917 80.7265625 748.59375 C82.80669815 752.52431306 84.60519727 756.58828127 86.44995117 760.63354492 C87.74226914 763.43484166 89.06394721 766.10208087 90.703125 768.71875 C92.48899652 771.86016254 92.20849236 774.45562987 92 778 C93.65 778.33 95.3 778.66 97 779 C97 779.66 97 780.32 97 781 C97.66 781 98.32 781 99 781 C99 781.99 99 782.98 99 784 C94.60786732 784.37646852 92.68175756 783.28522883 89 781 C86.90495738 779.91962043 84.80047324 778.85737688 82.6875 777.8125 C81.08455078 777.01779297 81.08455078 777.01779297 79.44921875 776.20703125 C78.64097656 775.80871094 77.83273437 775.41039062 77 775 C77 774.34 77 773.68 77 773 C76.13955078 772.82017578 76.13955078 772.82017578 75.26171875 772.63671875 C67.88260646 770.55935208 61.25367386 765.28213411 55 761 C54.01 760.34 53.02 759.68 52 759 C52 758.34 52 757.68 52 757 C51.42765625 756.75765625 50.8553125 756.5153125 50.265625 756.265625 C38.73669307 749.82532509 31.74801633 733.72032859 27 722 C26.65195313 721.19046875 26.30390625 720.3809375 25.9453125 719.546875 C23.8888079 714.65329471 22.3761412 709.93480694 21.39453125 704.71484375 C21.15452891 702.9776745 21.15452891 702.9776745 20 702 C11.73015721 718.51507295 11.35351263 737.33814229 16.72998047 754.93457031 C19.91930973 764.31751169 24.64247328 772.84082251 30.93359375 780.51171875 C32 782 32 782 32 784 C28.68469134 783.44744856 25.7915832 782.9252298 23 781 C21.75 778.375 21.75 778.375 21 776 C20.34 776 19.68 776 19 776 C0.64750809 752.64228303 2.1682429 717.11854685 5.390625 689.46972656 C7.62582234 670.96201115 7.62582234 670.96201115 9 666 C1.61805918 686.26862789 -3.879783 706.21967718 -7.1875 727.5625 C-7.36676025 728.68640137 -7.54602051 729.81030273 -7.73071289 730.96826172 C-9.36448285 741.91380216 -9.98394525 751.96088708 -6.66796875 762.609375 C-5.87015603 765.46470475 -5.76087428 768.05078282 -6 771 C-6.66 771 -7.32 771 -8 771 C-15.42052975 753.57991071 -17.48255927 736.28550429 -17.5 717.5 C-17.5043103 716.70106323 -17.50862061 715.90212646 -17.51306152 715.07897949 C-17.58782867 682.72806771 -6.11385393 652.58801546 15.59130859 628.58203125 C17.79377915 626.10854612 19.89429933 623.55609734 22 621 C12.68110891 627.77042516 12.68110891 627.77042516 6 637 C5.34 637 4.68 637 4 637 C3.731875 637.763125 3.46375 638.52625 3.1875 639.3125 C2.01888538 641.9572594 0.99065202 643.00934798 -1 645 C-1.309375 645.86625 -1.61875 646.7325 -1.9375 647.625 C-2.288125 648.40875 -2.63875 649.1925 -3 650 C-5.06640625 650.6484375 -5.06640625 650.6484375 -7 651 C-6.91245449 649.24908981 -6.80426627 647.49920449 -6.6875 645.75 C-6.62949219 644.77546875 -6.57148438 643.8009375 -6.51171875 642.796875 C-5.94492865 639.69899933 -4.99113672 638.38125766 -3 636 C-2.5875 634.96875 -2.175 633.9375 -1.75 632.875 C-0.0175184 628.58548673 2.65851103 625.04697955 5.37890625 621.33203125 C7.01657813 619.10414954 7.01657813 619.10414954 8.02734375 616.88671875 C9.09713514 614.81158123 10.32713584 613.61445992 12 612 C13.57217825 609.90776279 15.08530057 607.78030072 16.59765625 605.64453125 C17.29181641 604.83048828 17.29181641 604.83048828 18 604 C18.66 604 19.32 604 20 604 C20.33 603.01 20.66 602.02 21 601 C21.66 601 22.32 601 23 601 C23.3403125 600.1646875 23.3403125 600.1646875 23.6875 599.3125 C25.95600449 595.31561114 28.61899946 592.46033351 33 591 C33.28875 590.4225 33.5775 589.845 33.875 589.25 C35.40627065 586.1874587 37.44073445 584.24715999 40 582 C40.99 582 41.98 582 43 582 C43 581.34 43 580.68 43 580 C45.33997596 578.12444675 47.68494591 576.36136808 50.125 574.625 C50.79015625 574.14289062 51.4553125 573.66078125 52.140625 573.1640625 C56.036912 570.35262404 59.98516309 567.6390361 64 565 C59.71 564.34 55.42 563.68 51 563 C51 562.01 51 561.02 51 560 C53.56212654 559.14595782 55.48390772 558.77631462 58.1328125 558.53515625 C59.34324219 558.41817383 59.34324219 558.41817383 60.578125 558.29882812 C62.25244575 558.14346554 63.92692223 557.98977046 65.6015625 557.83789062 C72.69599188 557.1475308 80.0401271 556.43044376 86.375 552.9375 C91.4992779 550.23324558 96.70106552 547.7278592 101.9375 545.25 C102.77909668 544.849021 103.62069336 544.44804199 104.48779297 544.03491211 C105.68299561 543.46848999 105.68299561 543.46848999 106.90234375 542.890625 C107.97730103 542.38063965 107.97730103 542.38063965 109.07397461 541.86035156 C111 541 111 541 114 540 C114 539.34 114 538.68 114 538 C119.41176471 534 119.41176471 534 122 534 C121.67 533.34 121.34 532.68 121 532 C119.79085938 532.144375 118.58171875 532.28875 117.3359375 532.4375 C94.32885274 535.09116478 73.48791627 533.13582123 51 528 C51 526.68 51 525.36 51 524 C51.8971875 523.99742187 52.794375 523.99484375 53.71875 523.9921875 C64.13516364 523.66936476 72.46227193 521.09834045 82 517 C81.10539063 517.2165625 80.21078125 517.433125 79.2890625 517.65625 C72.06558237 519.31965267 65.41509496 520.46130775 58 520 C58 518.35 58 516.7 58 515 C59.32 514.67 60.64 514.34 62 514 C61.40799805 513.98018066 60.81599609 513.96036133 60.20605469 513.93994141 C40.03016637 513.23631216 20.62276313 511.89916436 1 507 C-0.55986154 506.61704779 -2.11975753 506.23423587 -3.6796875 505.8515625 C-7.45778754 504.91884914 -11.23017057 503.96556939 -15 503 C-15 502.01 -15 501.02 -15 500 C-8.25 498.875 -8.25 498.875 -6 500 C-3.33105065 500.11149511 -0.68912629 500.16412966 1.98046875 500.16796875 C2.78551346 500.17129715 3.59055817 500.17462555 4.41999817 500.17805481 C6.13407826 500.18312835 7.84816827 500.185463 9.56225586 500.18530273 C12.1321764 500.1874537 14.70164194 500.20550366 17.27148438 500.22460938 C27.36166937 500.25797081 37.0379917 499.6608052 47 498 C46.38294189 497.90501221 45.76588379 497.81002441 45.13012695 497.7121582 C18.02564883 493.49156439 -11.35999754 488.77500154 -35 474 C-35 473.34 -35 472.68 -35 472 C-25.76 472.33 -16.52 472.66 -7 473 C-8.28318101 470.43363798 -9.49685848 470.06099075 -12.02734375 468.75 C-16.81257753 466.16758304 -21.16784666 463.19169293 -25.5625 460 C-30.36119042 456.53403479 -35.16161085 453.20022195 -40.25366211 450.17578125 C-42.10228918 448.93113034 -43.56677216 447.70857978 -45 446 C-44.6875 443.8125 -44.6875 443.8125 -44 442 C-40.40752895 442.36845857 -37.42993815 443.16721285 -34.1875 444.6875 C-29.57607677 446.83474346 -24.85441184 448.55717511 -20.0625 450.25 C-19.30412842 450.52030029 -18.54575684 450.79060059 -17.7644043 451.0690918 C-13.97401768 452.49188828 -13.97401768 452.49188828 -10 453 C-13.96 451.02 -13.96 451.02 -18 449 C-18 448.34 -18 447.68 -18 447 C-18.9590625 446.6596875 -18.9590625 446.6596875 -19.9375 446.3125 C-30.99658753 441.57289106 -41.08385898 434.48163694 -50.80859375 427.48046875 C-52.81787548 426.12303956 -54.80599271 425.02453644 -57 424 C-57 423.34 -57 422.68 -57 422 C-57.58265625 421.88398438 -58.1653125 421.76796875 -58.765625 421.6484375 C-61.14627625 420.9575492 -62.73071912 420.0488519 -64.75 418.625 C-65.67039063 417.99464844 -65.67039063 417.99464844 -66.609375 417.3515625 C-67.06828125 416.90554688 -67.5271875 416.45953125 -68 416 C-68 415.01 -68 414.02 -68 413 C-57.77 413 -47.54 413 -37 413 C-42.74853505 409.40716559 -46.09552844 407.36014399 -52.1875 405.5 C-53.49554419 405.08701132 -54.80282453 404.67159647 -56.109375 404.25390625 C-56.75841797 404.04781738 -57.40746094 403.84172852 -58.07617188 403.62939453 C-65.99808484 401.0376824 -73.63699055 397.89806383 -81 394 C-80.69140625 392.078125 -80.69140625 392.078125 -80 390 C-76.9375 388.75 -76.9375 388.75 -74 388 C-74.5775 387.51789063 -75.155 387.03578125 -75.75 386.5390625 C-76.4925 385.90742188 -77.235 385.27578125 -78 384.625 C-78.7425 383.99851562 -79.485 383.37203125 -80.25 382.7265625 C-81.11625 381.87191406 -81.11625 381.87191406 -82 381 C-82 380.34 -82 379.68 -82 379 C-82.66 379 -83.32 379 -84 379 C-84.268125 378.195625 -84.53625 377.39125 -84.8125 376.5625 C-85.204375 375.716875 -85.59625 374.87125 -86 374 C-86.99 373.67 -87.98 373.34 -89 373 C-89 372.34 -89 371.68 -89 371 C-89.66 371 -90.32 371 -91 371 C-92.19542478 369.31874988 -93.30712843 367.57751917 -94.375 365.8125 C-96.16996963 362.85910284 -97.93680155 360.07896864 -100.09765625 357.37890625 C-102.67491305 354.15601223 -104.28051468 350.72908957 -106 347 C-106.30292969 346.35160156 -106.60585937 345.70320313 -106.91796875 345.03515625 C-108.20469682 342.1777742 -109 340.16908905 -109 337 C-106.75 336.625 -106.75 336.625 -104 337 C-101.8125 339.9375 -101.8125 339.9375 -100 343 C-99.34 343.33 -98.68 343.66 -98 344 C-98 344.66 -98 345.32 -98 346 C-97.34 346 -96.68 346 -96 346 C-94.31066078 347.6436814 -92.64740076 349.3142876 -91 351 C-90.071875 351.721875 -89.14375 352.44375 -88.1875 353.1875 C-87.465625 353.785625 -86.74375 354.38375 -86 355 C-86 355.66 -86 356.32 -86 357 C-85.278125 357.25265625 -84.55625 357.5053125 -83.8125 357.765625 C-80.78703236 359.09346913 -78.59323798 360.71019695 -76 362.75 C-66.89494724 369.49312375 -57.00144616 373.48664356 -46 376 C-48.10253933 374.20639298 -50.20694333 372.41505881 -52.3125 370.625 C-52.90740234 370.11710937 -53.50230469 369.60921875 -54.11523438 369.0859375 C-54.69208984 368.59609375 -55.26894531 368.10625 -55.86328125 367.6015625 C-56.39219971 367.15119629 -56.92111816 366.70083008 -57.46606445 366.23681641 C-58.91162467 365.07125727 -60.45494456 364.03003696 -62 363 C-62 362.34 -62 361.68 -62 361 C-62.99 360.67 -63.98 360.34 -65 360 C-65 359.34 -65 358.68 -65 358 C-65.66 358 -66.32 358 -67 358 C-68.31153763 356.53190495 -69.54994075 354.99804216 -70.75 353.4375 C-73.25763148 350.21144125 -75.78701789 347.05533462 -78.5 344 C-81 341 -81 341 -81 339 C-81.66 339 -82.32 339 -83 339 C-83 338.34 -83 337.68 -83 337 C-83.66 337 -84.32 337 -85 337 C-85.87890625 335.40494792 -86.7578125 333.80989583 -87.63671875 332.21484375 C-89.07420515 329.80233753 -89.07420515 329.80233753 -91.3046875 326.9375 C-94.64816728 322.29559344 -97.0088513 317.22524487 -99.4375 312.0625 C-99.91614502 311.0513916 -100.39479004 310.0402832 -100.88793945 308.99853516 C-111.50832792 286.28145401 -111.50832792 286.28145401 -111 279 C-109.68 278.67 -108.36 278.34 -107 278 C-106.36384766 279.01707031 -106.36384766 279.01707031 -105.71484375 280.0546875 C-102.13331452 285.73790531 -98.44438005 291.28663783 -94.48046875 296.7109375 C-92.95645455 299.06732885 -91.9536432 301.36701439 -91 304 C-90.34 304 -89.68 304 -89 304 C-87.34375 305.8984375 -87.34375 305.8984375 -85.5 308.375 C-83.73633557 310.72904362 -82.0808095 312.9191905 -80 315 C-80.32871094 314.42636719 -80.65742188 313.85273438 -80.99609375 313.26171875 C-88.01927501 300.71896414 -94.51228355 287.67483408 -99 274 C-99.50273437 272.59621094 -99.50273437 272.59621094 -100.015625 271.1640625 C-104.54741742 258.27889153 -106.40798431 246.43065233 -106.44604492 232.8190918 C-106.42580078 227.16063251 -106.42580078 227.16063251 -109.03515625 222.3203125 C-110.00775391 221.66675781 -110.00775391 221.66675781 -111 221 C-110.67 220.01 -110.34 219.02 -110 218 C-107.75 217.625 -107.75 217.625 -105 218 C-103 220.75 -103 220.75 -101 224 C-99.34211215 225.34423339 -97.67423683 226.67618483 -96 228 C-94.16481537 230.0255901 -92.3989541 232.09627676 -90.6484375 234.1953125 C-88.93367669 236.21772256 -88.93367669 236.21772256 -86 238 C-86 238.66 -86 239.32 -86 240 C-85.34 240 -84.68 240 -84 240 C-84 240.66 -84 241.32 -84 242 C-83.34 242 -82.68 242 -82 242 C-82.20496094 241.41992188 -82.40992188 240.83984375 -82.62109375 240.2421875 C-82.89050781 239.46101562 -83.15992188 238.67984375 -83.4375 237.875 C-83.70433594 237.10929688 -83.97117187 236.34359375 -84.24609375 235.5546875 C-89.23083528 218.6633872 -87.1267471 198.86440103 -87.06866455 181.48254395 C-87.05827502 178.03589501 -87.05383409 174.58923833 -87.04882812 171.14257812 C-87.03790937 164.42836581 -87.02125673 157.71418714 -87 151 C-85.35 151 -83.7 151 -82 151 C-81.29700927 153.5106812 -80.90948731 155.82969963 -80.625 158.4375 C-79.99342241 162.03749225 -78.94318174 163.97092258 -77 167 C-76.99635437 166.38184921 -76.99270874 165.76369843 -76.98895264 165.1268158 C-76.9467346 158.61990426 -76.87712206 152.11367256 -76.79248047 145.60717773 C-76.76447184 143.18765098 -76.7431587 140.76803614 -76.72900391 138.34838867 C-76.58113779 114.48772712 -76.58113779 114.48772712 -72.91308594 102.95874023 C-71.66517706 98.91504835 -71.39945712 95.28466374 -71.25 91.0625 C-71.20552734 90.01932617 -71.20552734 90.01932617 -71.16015625 88.95507812 C-71.09183312 87.30393587 -71.04341616 85.65198482 -71 84 C-69.02 84.495 -69.02 84.495 -67 85 C-66.95512451 85.69448242 -66.91024902 86.38896484 -66.86401367 87.10449219 C-66.64973635 90.32051987 -66.4186928 93.53514575 -66.1875 96.75 C-66.11724609 97.84183594 -66.04699219 98.93367188 -65.97460938 100.05859375 C-65.41407446 107.63702579 -64.07969972 114.69254498 -62 122 C-61.73445313 121.26950439 -61.46890625 120.53900879 -61.1953125 119.78637695 C-60.5063697 117.89231805 -59.81608287 115.99874786 -59.125 114.10546875 C-58.44803767 112.23677065 -57.77885315 110.36519006 -57.125 108.48828125 C-52.53253103 95.42844761 -47.02520766 82.74290568 -40.71972656 70.42480469 C-38.60174324 66.27070262 -36.78067523 62.10960395 -35.12109375 57.7578125 C-29.4188879 43.73078347 -22.22322461 30.68726083 -14 18 C-13.58234375 17.3296875 -13.1646875 16.659375 -12.734375 15.96875 C-11.87602956 14.61077065 -10.9469862 13.29772183 -10 12 C-9.34 12 -8.68 12 -8 12 C-7.34 10.35 -6.68 8.7 -6 7 C-5.34 7 -4.68 7 -4 7 C-3.71125 6.21625 -3.4225 5.4325 -3.125 4.625 C-2 2 -2 2 0 0 Z M-76 173 C-75 175 -75 175 -75 175 Z M-77 318 C-76 320 -76 320 -76 320 Z M27 615 C26.67 615.66 26.34 616.32 26 617 C26.66 617 27.32 617 28 617 C27.67 616.34 27.34 615.68 27 615 Z M23 618 C23.33 618.66 23.66 619.32 24 620 C24.33 619.34 24.66 618.68 25 618 C24.34 618 23.68 618 23 618 Z M42 651 C41.34727468 653.64429651 40.70273172 656.29017506 40.0625 658.9375 C39.88009766 659.67291016 39.69769531 660.40832031 39.50976562 661.16601562 C32.93556795 688.53858414 36.81043699 718.73038485 51 743 C53.41355151 746.84666382 55.95389311 750.62497077 59 754 C59.66 754 60.32 754 61 754 C61.18820312 754.54398438 61.37640625 755.08796875 61.5703125 755.6484375 C63.68149155 759.12092326 66.67047971 761.1840823 69.875 763.625 C70.50019531 764.11484375 71.12539063 764.6046875 71.76953125 765.109375 C74.75985593 767.42324145 77.59507141 769.33865803 81 771 C81.33 771.66 81.66 772.32 82 773 C84.52733235 773.65555119 84.52733235 773.65555119 87 774 C86.59007812 773.38511719 86.18015625 772.77023437 85.7578125 772.13671875 C83.50520833 768.7578125 81.25260417 765.37890625 79 762 C78.34 762 77.68 762 77 762 C76.9175 761.319375 76.835 760.63875 76.75 759.9375 C75.80122389 756.22146022 73.9790564 753.24035643 72 750 C67.16374488 742.04183393 64.39939639 733.41514411 61.4375 724.625 C61.13392578 723.74328125 60.83035156 722.8615625 60.51757812 721.953125 C58.79041217 716.8205447 57.46518145 711.77396693 56.47631836 706.45117188 C55.6889038 702.39907438 54.62427243 698.42489924 53.5625 694.4375 C53.35818359 693.65181641 53.15386719 692.86613281 52.94335938 692.05664062 C51.68569469 687.29632104 50.23044756 682.64504133 48.64477539 677.98461914 C47.89531279 675.6777727 47.36433666 673.38697004 46.9375 671 C46.32878121 667.73320917 45.67680454 664.48989342 44.9375 661.25 C44.17026061 657.84877343 43.53038375 654.4474944 43 651 C42.67 651 42.34 651 42 651 Z M12 658 C13 660 13 660 13 660 Z M139 972 C139.33 972.66 139.66 973.32 140 974 C140.33 973.34 140.66 972.68 141 972 C140.34 972 139.68 972 139 972 Z M137 974 C137.33 974.66 137.66 975.32 138 976 C138.33 975.34 138.66 974.68 139 974 C138.34 974 137.68 974 137 974 Z M175 975 C176 977 176 977 176 977 Z " fill="#FC853E" transform="translate(215,20)"/>
</svg>
